<svg width="256" height="275" viewBox="0 0 256 275" fill="none" xmlns="http://www.w3.org/2000/svg">
<path d="M132.2 0.876375C130.458 1.20833 130.292 1.70626 130.292 6.35361C130.292 17.723 127.553 33.2418 123.902 42.9515C121.412 49.6735 115.271 59.0512 110.126 64.0305L106.474 67.599L96.0175 68.8439C90.2914 69.5078 83.0714 70.9186 79.9178 71.9974C64.7309 77.2257 60.4155 79.1344 55.7682 82.7859C50.4569 86.9353 49.71 87.1843 45.4776 85.3585C41.2452 83.6158 31.0377 82.5369 25.4774 83.2838C19.5853 84.1137 0 89.9229 0 90.8358C0 91.2507 1.4108 92.4126 3.15356 93.5744C4.81333 94.6532 9.21171 98.3047 12.7802 101.624C20.2492 108.761 30.1248 114.736 35.519 115.566C42.0751 116.479 42.3241 117.392 41.4942 136.811C40.8303 152.828 40.7473 153.409 38.9215 154.82C32.7804 159.55 31.9505 161.791 34.5232 166.189C35.851 168.43 35.768 168.679 30.7057 177.891C25.1455 188.181 23.4857 193.658 24.3986 199.468C25.5604 207.102 29.1289 210.422 38.5896 212.414C47.1374 214.322 50.7889 213.991 53.8595 211.086C55.2703 209.675 56.4321 208.264 56.4321 207.849C56.4321 206.356 53.2785 204.53 49.959 203.949C42.822 202.787 41.9921 197.144 47.8013 190.09C48.8802 188.762 49.793 187.434 49.793 187.019C49.793 186.604 46.5565 185.277 42.656 184.115L35.602 181.957L39.2535 175.152C41.8261 170.422 43.4859 168.264 44.6477 168.098C45.6436 167.932 50.7059 169.177 55.9342 170.754C61.0794 172.413 66.5567 173.741 67.9675 173.741C70.8721 173.741 77.1792 176.065 77.1792 177.144C77.1792 178.057 63.901 187.019 62.5732 187.019C60.4155 187.019 52.2827 191.252 51.5358 192.745C51.0378 193.658 50.6229 195.65 50.6229 197.31C50.6229 200.795 52.9466 202.787 57.013 202.787C60.7475 202.787 63.0712 200.297 63.0712 196.314C63.0712 192.414 63.4861 191.999 74.1086 185.857C79.6688 182.621 82.7394 181.293 83.9012 181.625C85.976 182.289 91.3702 180.629 92.781 178.886C93.2789 178.14 93.7769 176.646 93.7769 175.484C93.7769 173.741 94.8557 172.662 98.7562 170.09C101.495 168.347 105.229 165.193 107.055 163.202C112.781 156.646 124.317 136.396 129.047 124.363C130.126 121.79 130.541 121.293 131.122 122.288C132.035 123.865 130.873 137.309 129.13 145.276C127.636 152.164 119.088 169.841 112.698 179.384C109.379 184.281 106.225 190.754 106.225 192.497C106.225 194.405 115.188 188.845 119.752 184.115C123.487 180.214 135.022 159.55 136.848 153.243C140.001 142.786 141.246 135.152 141.246 127.683C141.163 123.533 141.08 119.467 140.914 118.554C140.748 117.558 141.163 116.894 141.827 116.894C143.155 116.894 145.728 124.778 146.557 131.168C147.138 135.898 145.894 142.455 143.57 147.185C142.74 148.762 141.827 151.002 141.578 152.164L140.997 154.239L142.74 152.164C145.811 148.596 149.462 140.048 149.96 135.401C150.458 130.338 148.466 121.458 145.977 118.056L144.4 115.815L148.798 113.658C151.371 112.413 158.425 106.604 166.143 99.6325C183.902 83.4498 189.711 80.4622 203.736 80.5452C215.438 80.5452 223.654 84.3627 226.973 91.1677C229.878 97.3089 227.72 111.251 222.741 118.554C220.334 122.122 220.251 122.869 222.243 123.782C224.733 125.027 247.139 122.703 251.621 120.712C253.778 119.716 255.77 118.637 255.936 118.222C256.185 117.807 255.687 116.562 254.774 115.4L253.115 113.243L249.131 114.985C247.056 115.981 242.658 116.894 239.504 117.143C234.359 117.475 233.778 117.392 234.276 116.147C234.608 115.4 235.604 112.081 236.6 108.844C240.998 94.5702 235.521 81.3751 222.492 74.985C218.093 72.8273 215.936 72.2464 209.546 71.9144C201.081 71.4165 196.848 72.1634 189.711 75.3999C187.222 76.5618 184.981 77.4746 184.732 77.4746C183.819 77.4746 175.52 83.1179 171.786 86.1884C169.711 87.8482 165.23 91.9146 161.827 95.2342C158.425 98.5537 153.86 102.537 151.786 104.28C148.134 107.267 141.661 110.587 139.669 110.67C137.761 110.67 138.508 106.853 140.997 103.367C142.408 101.541 143.736 98.7197 143.985 97.1429C144.483 94.8192 144.981 94.1553 146.889 93.7404C150.292 93.0765 161.495 87.6822 165.562 84.7776C181.413 73.3252 192.118 54.8188 197.18 30.0883C198.591 23.1173 199.338 2.70212 198.176 1.54028C197.844 1.20833 196.433 0.876375 194.94 0.876375L192.284 0.710398L187.886 13.8226C178.757 41.1257 171.952 50.7524 152.284 64.3625C146.557 68.3459 137.097 73.4912 136.184 73.1592C135.769 73.0763 136.35 70.2547 137.346 67.1011C140.084 58.8023 141.08 50.2545 141.08 35.3995C141.08 17.0591 138.176 0.046491 135.105 0.378445C134.524 0.461433 133.196 0.710398 132.2 0.876375ZM191.371 27.4327C188.633 46.603 177.429 67.765 164.566 77.8066C156.184 84.4457 140.665 90.6698 138.342 88.3461C136.848 86.8523 129.711 87.2673 126.142 89.093C122.159 91.0847 118.673 95.5661 118.673 98.4707C118.673 101.541 120.831 101.375 121.412 98.3047C122.408 93.6574 132.117 88.5951 136.101 90.7528C138.591 92.0806 138.176 96.313 135.271 100.711C133.943 102.786 132.781 105.11 132.781 105.857C132.781 107.267 129.877 109.674 125.893 111.334C123.736 112.247 123.57 112.579 124.068 115.898C124.566 119.135 124.068 120.38 117.429 133.077C105.561 155.816 95.6856 167.932 88.9635 167.932C87.4697 167.932 84.8971 168.513 83.2373 169.177C80.2498 170.422 79.7518 170.339 70.9551 167.6C65.9758 166.023 59.7516 164.115 57.262 163.451C50.7889 161.625 45.9756 158.637 46.3075 156.646C46.3905 155.816 46.8884 148.181 47.3034 139.716C47.7183 131.251 48.3822 123.367 48.6312 122.122C48.9631 120.546 48.3822 118.554 46.1415 114.653C43.6519 110.172 43.3199 109.01 43.9008 106.438C44.8137 102.371 48.8802 95.0682 50.5399 94.4873C51.2868 94.2383 52.8636 93.2424 54.1084 92.2466C55.2703 91.1677 57.096 89.6739 58.0089 88.8441C60.0836 87.1843 65.6438 84.1137 66.6397 84.1137C67.0546 84.1137 68.5484 83.6158 69.9592 82.9519C80.0008 78.4705 82.4904 77.4746 86.4739 76.3958C88.8805 75.7319 94.7727 74.902 99.586 74.5701C107.636 73.9891 108.466 73.7402 111.453 71.3335C120.001 64.6114 129.213 48.8437 133.113 34.7356L135.188 27.2667V36.8103C135.271 55.3997 130.375 74.985 125.644 74.985C123.321 74.985 118.673 77.6406 118.673 78.8854C118.673 79.7983 119.254 79.9643 120.748 79.6323C121.993 79.3004 123.57 79.6323 124.732 80.3792C129.13 83.2008 136.931 80.9602 150.375 72.8273C162.076 65.7733 174.442 54.9848 179.753 47.1009C182.657 42.7855 190.873 26.0219 190.873 24.3621C190.873 23.9471 191.122 23.5322 191.371 23.5322C191.703 23.5322 191.62 25.275 191.371 27.4327ZM37.3448 90.6698C43.9008 91.3337 46.4735 92.0806 46.4735 93.4084C46.4735 93.8234 45.5606 95.8151 44.3988 97.7238C43.2369 99.7155 41.7432 103.201 40.9963 105.608C39.9174 109.259 39.5025 109.84 37.6767 109.84C34.2742 109.84 24.6475 104.114 18.5064 98.4707C12.9462 93.3254 12.8632 93.3254 15.4358 93.2424C16.7637 93.2424 18.3404 92.8275 18.7554 92.4126C20.1662 91.0017 26.8882 89.176 29.0459 89.6739C30.2078 89.9229 33.9422 90.3378 37.3448 90.6698Z" fill="#F27025"/>
<path d="M90.4574 82.371C81.1627 85.2756 70.2912 93.7404 66.0588 101.541C64.814 103.865 63.9011 105.94 64.0671 106.106C64.1501 106.272 66.3078 104.031 68.6315 101.043C74.6896 93.7404 80.8308 89.176 89.2126 85.9395C96.1006 83.2009 98.1753 81.5411 94.4409 81.7071C93.362 81.7071 91.6193 82.039 90.4574 82.371Z" fill="#F27025"/>
<path d="M93.6939 99.0516C89.2125 99.7985 84.1503 102.786 81.0797 106.521C77.7602 110.504 78.4241 111.168 82.3245 107.848C87.3038 103.533 91.8682 101.624 97.9263 101.209C100.914 101.043 103.653 100.794 104.15 100.794C104.648 100.711 104.648 100.462 104.15 99.9645C102.823 98.8027 97.8433 98.3877 93.6939 99.0516Z" fill="#F27025"/>
<path d="M89.4614 107.516C88.2996 108.595 86.7228 110.587 85.9759 111.998C85.312 113.409 84.1502 114.819 83.4033 115.068C82.7394 115.4 82.1584 115.981 82.1584 116.479C82.1584 117.06 84.9801 117.309 90.5403 117.143L99.0051 116.894L100.499 114.073C101.329 112.496 102.408 110.836 102.906 110.338C104.482 108.761 103.735 107.516 100.665 107.019C92.2 105.525 91.7851 105.525 89.4614 107.516ZM92.532 111.915C92.698 114.57 92.532 114.819 90.2913 114.819C87.4697 114.819 87.3037 113.409 89.7104 110.338C91.7851 107.682 92.283 107.931 92.532 111.915Z" fill="#F27025"/>
<path d="M99.1713 118.969C98.0924 120.712 92.0343 123.118 88.6317 123.201L85.0632 123.284L87.8018 124.197C89.7106 124.778 91.3703 124.778 93.694 124.114C97.0136 123.035 101.246 120.214 101.246 118.886C101.246 117.89 99.8352 117.89 99.1713 118.969Z" fill="#F27025"/>
<path d="M112.449 122.454C112.283 123.035 111.702 125.193 111.204 127.268C109.711 132.911 106.474 139.301 102.076 145.11C96.7644 152.164 96.5154 152.496 98.5072 151.5C100.914 150.172 107.387 142.952 109.711 138.886C112.117 134.737 115.354 125.774 115.354 123.118C115.354 121.293 113.03 120.795 112.449 122.454Z" fill="#F27025"/>
<path d="M151.288 119.55C151.454 120.878 152.449 124.861 153.445 128.512C155.935 137.89 155.769 147.434 153.113 156.729C151.952 160.712 151.205 164.197 151.371 164.446C151.952 164.944 155.686 156.48 157.263 151.085C159.669 142.869 158.259 128.43 154.275 120.38C152.366 116.728 150.707 116.313 151.288 119.55Z" fill="#F27025"/>
<path d="M101.329 180.214C101.163 182.621 94.6068 190.007 90.5404 192.414C86.3909 194.737 85.2291 196.148 87.3868 196.148C91.7852 196.148 103.155 183.451 101.744 180.131C101.495 179.384 101.329 179.467 101.329 180.214Z" fill="#F27025"/>
<path d="M78.8388 187.185C78.8388 190.754 74.1915 198.97 70.0421 202.787C67.8014 204.862 63.8179 207.517 61.2453 208.596C55.1871 211.252 54.7722 213.161 60.4154 212.497C67.9673 211.501 70.789 210.256 74.9384 205.941L78.9218 201.874L82.9882 206.19L87.0547 210.505L92.6979 210.007L98.3411 209.592L100.997 224.281C104.731 245.194 109.379 259.053 115.603 267.684C120.333 274.406 121.246 274.821 130.707 274.572C142.159 274.24 142.076 274.24 141.495 273.327C141.163 272.829 139.337 272.663 137.097 272.912C127.304 274.157 118.258 264.53 112.532 246.522C110.872 241.46 109.13 234.406 108.715 231.003C108.217 227.601 107.47 223.617 107.055 222.289C106.225 219.717 102.822 200.795 102.739 198.638C102.739 197.974 103.154 195.899 103.652 194.073C104.15 192.248 104.482 189.592 104.482 188.264C104.399 186.272 104.233 186.687 103.403 189.924C102.076 195.401 99.9179 199.634 97.4282 202.04L95.3535 204.032L90.6232 201.542C88.0505 200.131 85.5609 198.306 85.063 197.31C84.565 196.397 83.5692 194.986 82.7393 194.156C81.8264 193.243 81.3285 191.418 81.3285 189.011C81.3285 186.355 80.9965 185.36 80.0836 185.36C79.3368 185.36 78.8388 186.106 78.8388 187.185Z" fill="#F27025"/>
<path d="M130.79 193.492C129.628 206.605 126.142 215.484 117.927 226.273C113.279 232.414 113.03 234.904 117.346 231.252C126.64 223.285 132.864 209.177 132.698 196.148C132.615 186.77 131.454 185.194 130.79 193.492Z" fill="#F27025"/>
<path d="M137.097 200.297C135.769 217.891 133.943 224.696 126.557 239.966C123.155 246.937 120.333 252.829 120.333 252.995C120.333 253.244 120.831 253.41 121.412 253.41C123.487 253.41 129.96 242.953 133.943 233.161C138.176 222.87 140.748 201.21 138.839 191.169C138.176 187.932 138.01 189.177 137.097 200.297Z" fill="#F27025"/>
<path d="M145.811 202.123C145.23 214.986 143.155 229.26 140.582 237.061C139.835 239.468 137.014 246.439 134.358 252.663C129.545 263.867 128.715 266.688 130.209 266.688C132.034 266.688 137.761 256.149 141.412 246.19C143.736 239.468 145.562 232.331 146.889 223.783C147.968 217.31 148.051 191.169 146.972 190.09C146.64 189.758 146.06 195.152 145.811 202.123Z" fill="#F27025"/>
</svg>
